<?xml version="1.0" encoding="UTF-8" standalone="no"?>
<!-- Created with Inkscape (http://www.inkscape.org/) -->

<svg
   xmlns:dc="http://purl.org/dc/elements/1.1/"
   xmlns:cc="http://creativecommons.org/ns#"
   xmlns:rdf="http://www.w3.org/1999/02/22-rdf-syntax-ns#"
   xmlns:svg="http://www.w3.org/2000/svg"
   xmlns="http://www.w3.org/2000/svg"
   xmlns:sodipodi="http://sodipodi.sourceforge.net/DTD/sodipodi-0.dtd"
   xmlns:inkscape="http://www.inkscape.org/namespaces/inkscape"
   version="1.1"
   id="svg2"
   width="1004"
   height="650"
   viewBox="0 0 1004 650"
   sodipodi:docname="SMART Harare logo.svg"
   inkscape:version="0.92.1 r15371">
  <metadata
     id="metadata8">
    <rdf:RDF>
      <cc:Work
         rdf:about="">
        <dc:format>image/svg+xml</dc:format>
        <dc:type
           rdf:resource="http://purl.org/dc/dcmitype/StillImage" />
        <dc:title></dc:title>
      </cc:Work>
    </rdf:RDF>
  </metadata>
  <defs
     id="defs6" />
  <sodipodi:namedview
     pagecolor="#ffffff"
     bordercolor="#666666"
     borderopacity="1"
     objecttolerance="10"
     gridtolerance="10"
     guidetolerance="10"
     inkscape:pageopacity="0"
     inkscape:pageshadow="2"
     inkscape:window-width="1920"
     inkscape:window-height="986"
     id="namedview4"
     showgrid="false"
     showguides="false"
     inkscape:zoom="0.70101891"
     inkscape:cx="675.80415"
     inkscape:cy="327.57909"
     inkscape:window-x="-11"
     inkscape:window-y="-11"
     inkscape:window-maximized="1"
     inkscape:current-layer="svg2"
     inkscape:lockguides="true" />
  <path
     style="fill:#36ebff;fill-opacity:1;stroke:none;stroke-width:0;stroke-miterlimit:4;stroke-dasharray:none;stroke-opacity:1"
     d="m 187.32082,635.51508 c -2.67466,-3.38356 -2.72847,-4.40341 -2.36229,-44.6117 l 0.37484,-41.14885 3.05982,-2.46414 c 4.11573,-3.31417 11.82573,-3.23197 15.49064,0.16561 2.6129,2.42221 2.83667,3.84741 2.83667,18.05651 v 15.42665 h 18.79504 18.79502 v -15.25213 c 0,-14.27536 0.192,-15.4317 3.00008,-18.05636 4.23299,-3.95716 11.68454,-3.78732 15.85372,0.36141 l 3.18158,3.16583 v 40.51145 c 0,39.03149 -0.0965,40.63564 -2.68644,43.90968 -2.14698,2.71584 -3.78926,3.39838 -8.17767,3.39838 -9.70015,0 -10.43209,-1.32405 -11.17127,-20.20557 l -0.648,-16.55224 h -18.14702 -18.14679 l -0.64825,16.55224 c -0.73915,18.88152 -1.47109,20.20557 -11.17137,20.20557 -4.41401,0 -6.02789,-0.67924 -8.22831,-3.46234 z m 124.82889,1.55778 c -5.86187,-4.08531 -5.32013,-6.75672 9.51677,-46.9152 15.08255,-40.82376 17.12582,-44.46246 25.88694,-46.09774 5.4979,-1.02631 12.3263,1.75765 15.2004,6.19686 3.55329,5.48867 28.02776,75.23208 28.02776,79.86926 0,5.94901 -3.24617,8.85138 -9.89992,8.85138 -6.9252,0 -9.32184,-2.04698 -12.15516,-10.38138 l -2.38985,-7.03029 -16.17713,-0.36002 -16.17747,-0.36013 -2.07693,6.2222 c -3.31077,9.91818 -5.24234,11.90962 -11.55182,11.90962 -3.0091,0 -6.70063,-0.85718 -8.20359,-1.90456 z m 28.15319,-36.13146 9.81167,-0.32532 9.19744,0.30711 -3.19638,-14.11021 c -2.28806,-6.82989 -5.05724,-14.57403 -6.16443,-15.50234 -1.73481,-1.92823 -3.72093,3.34744 -6.32957,14.91418 z m 95.84574,35.45639 c -2.48432,-2.47191 -2.59223,-4.29913 -2.59223,-43.85106 0,-39.55213 0.10524,-41.3791 2.59223,-43.85124 2.36987,-2.35798 4.3208,-2.57953 22.7253,-2.57953 22.35686,0 26.67926,1.02237 33.95952,8.03342 5.1771,4.98566 7.14079,10.66158 7.21559,20.85565 0.0863,11.8465 -4.44513,18.7296 -15.60362,23.69774 l -5.49567,2.44693 3.39442,3.1146 c 1.86691,1.71286 6.81905,7.04688 11.00462,11.85326 8.45389,9.70782 9.46759,13.71387 4.92365,19.46148 -2.14695,2.71584 -3.78932,3.39838 -8.17741,3.39838 -3.02027,0 -6.37428,-0.72536 -7.45345,-1.61214 -1.07928,-0.88696 -7.46126,-8.26152 -14.18206,-16.38824 l -12.21946,-14.77657 -0.64829,13.68057 c -0.52322,11.04555 -1.12364,14.20164 -3.11747,16.38828 -3.36105,3.6866 -12.6763,3.75963 -16.32567,0.12791 z m 27.13294,-51.33223 c 4.34883,0.0566 8.67063,-0.494 10.62041,-2.19856 4.10124,-3.335 3.90425,-9.58098 0.73896,-13.28112 -2.05806,-2.04802 -1.79863,-2.47955 -11.31283,-2.51462 0,0 5.63627,0.0462 -8.10872,0.0254 l 0.0446,9.13306 0.16335,8.99841 z m 77.74415,51.49848 c -2.07913,-1.67499 -2.98459,-3.74616 -2.96053,-6.77103 0.0316,-4.14445 22.81559,-67.54703 27.8025,-77.37311 2.47701,-4.88083 8.95472,-8.88701 14.35551,-8.87853 3.81869,0.005 10.86782,4.20379 12.6626,7.54091 4.01772,7.46954 27.32395,74.73492 27.32395,78.86085 0,6.14316 -3.16818,9.03429 -9.89992,9.03429 -6.88093,0 -9.05688,-1.88393 -11.91731,-10.31793 l -2.40588,-7.09374 -16.28822,-0.36002 -16.28813,-0.36013 -2.22766,6.8088 c -1.22525,3.74479 -3.11794,7.82438 -4.20621,9.06586 -2.7238,3.10702 -12.01358,3.01614 -15.9507,-0.15622 z m 28.8333,-35.92622 9.15618,0.0875 9.50128,-0.17886 -3.0038,-11.14638 c -6.83149,-18.07333 -4.9194,-18.38385 -11.22629,-3.40912 z m 95.76838,35.51695 c -2.54487,-2.71802 -2.643,-4.34417 -2.643,-43.85121 0,-39.30896 0.10599,-41.13662 2.59253,-43.60807 2.37365,-2.36188 4.3207,-2.57953 23.07722,-2.57953 19.22726,0 20.87827,0.19657 26.89627,3.20228 7.91341,3.95259 11.91239,9.63248 13.73934,19.51435 2.51663,13.61275 -3.1333,24.80135 -14.98814,29.68007 l -5.64829,2.32468 10.8668,11.58731 c 11.98787,12.78292 13.3443,16.62256 8.18043,23.15439 -2.14477,2.71298 -3.79052,3.39838 -8.16226,3.39838 -6.28795,0 -7.95808,-1.47437 -24.60834,-21.72658 l -9.91009,-12.05343 v 14.06734 c 0,16.9974 -1.5177,19.71267 -11.01766,19.71267 -4.2273,0 -6.42564,-0.7409 -8.37481,-2.82265 z m 18.96762,-50.73347 8.24612,0.0928 c 7.14916,0.0505 8.5205,-0.60859 10.97935,-3.17941 1.96133,-2.17439 2.08605,-4.31924 1.93037,-6.68904 -0.13276,-7.59926 -2.84094,-8.54329 -12.12356,-8.64748 0,0 10.90027,0.26089 -8.77101,0.12286 l -1e-5,9.48642 z m 91.74845,50.39033 -3.18158,-3.16569 V 592.2038 c 0,-38.91729 0.0977,-40.54898 2.64287,-43.26522 2.51751,-2.68856 3.68277,-2.82262 24.55442,-2.82262 21.1733,0 21.97942,0.0952 23.92905,2.86663 2.74885,3.90485 2.53783,10.39552 -0.45814,14.07974 -2.25326,2.77086 -3.65141,3.08456 -15.55431,3.48784 l -13.07853,0.44338 v 6.84812 6.84835 l 12.18065,0.44696 c 14.52606,0.53316 17.63204,2.35107 17.63204,10.31992 0,8.40508 -2.96221,10.11792 -17.49874,10.11792 h -12.31395 v 8.38339 8.38343 h 13.6103 c 11.88187,0 13.93915,0.32744 16.20239,2.57926 3.72565,3.70718 3.44178,10.88008 -0.58903,14.89073 -3.11443,3.09895 -3.62246,3.16579 -24.03881,3.16579 -20.41629,0 -20.92423,-0.0663 -24.03863,-3.16579 z M 116.40221,605.94286 c -10.81395,-5.30632 -10.68266,-24.27775 0.20412,-29.41835 11.79053,-5.56675 24.00783,1.93024 24.00783,14.73237 0,12.82694 -12.52208,20.42198 -24.21195,14.68598 z m 755.68723,0.071 c -10.66298,-5.41874 -10.76849,-23.92796 -0.17019,-29.77979 7.46274,-4.12059 18.89814,-0.60085 22.48539,6.92064 7.11466,14.91826 -7.82532,30.22236 -22.3152,22.85915 z M 119.01543,509.90697 c -16.43238,-1.24674 -35.51538,-6.21431 -49.04461,-12.76605 -11.78006,-5.70511 -23.88439,-14.06006 -23.94135,-16.52534 -0.0477,-2.11912 29.36949,-36.90556 31.64701,-37.4221 0.93931,-0.21331 3.96476,1.14701 6.7229,3.02274 13.40497,9.11604 29.54593,14.46142 47.14122,15.61172 11.72039,0.76592 17.61988,-0.54782 19.0445,-4.24146 1.38892,-3.601 -4.03195,-6.56011 -17.46395,-9.53294 C 95.18338,439.65708 78.89569,433.23781 67.98728,422.38342 57.9676,412.41389 55.70413,406.43323 55.75413,390.0565 c 0.0319,-11.03145 0.59142,-14.9176 3.01064,-20.96089 6.40608,-16.00503 19.8901,-27.61019 39.6213,-34.10095 9.70819,-3.19353 12.0763,-3.44319 32.50664,-3.42584 24.31924,0.0211 33.61313,1.50971 50.86619,8.14796 12.95508,4.98472 26.67135,13.80506 25.91893,16.66775 -0.98764,3.75806 -27.15096,38.83095 -28.96665,38.83095 -0.97048,0 -4.54382,-1.69866 -7.94067,-3.77502 -9.39202,-5.74061 -25.4331,-10.6226 -37.38019,-11.37664 -11.97255,-0.75542 -16.50782,0.74023 -15.86236,5.23141 0.55425,3.85629 5.15048,5.73988 22.82652,9.35445 39.2125,8.01846 57.69685,17.46918 67.05796,34.28572 3.66308,6.58056 3.84493,7.63877 3.84493,22.38385 0,14.74589 -0.19659,15.88979 -4.15993,24.21545 -12.28308,25.80209 -43.01052,37.79297 -88.08201,34.37227 z m 111.03688,-87.60675 v -85.12304 h 31.01211 31.01235 l 10.09387,16.44415 c 5.55194,9.04446 13.34089,21.72229 17.30944,28.17332 l 7.21521,11.72926 17.2523,-28.17344 17.25222,-28.17329 h 17.92133 17.92124 l 5.46577,-6.12621 c 7.64318,-8.56669 9.61049,-13.49387 7.216,-18.07335 -2.02993,-3.88232 -6.01742,-7.78656 -11.4799,-11.2398 -5.69033,-3.59734 -9.60598,-1.62911 -21.2622,10.6873 -10.07987,10.6505 -10.72726,11.09855 -14.2583,9.86769 -3.45303,-1.20341 -3.72439,-1.81048 -4.07988,-9.12517 -0.76881,-15.82615 7.6417,-29.46737 22.72306,-36.85484 8.26809,-4.05013 9.28089,-4.22882 24.58341,-4.33691 15.95771,-0.11201 15.96105,-0.11288 25.34752,-5.10274 19.19045,-10.20064 31.53291,-16.06994 35.31173,-16.79199 3.77771,-0.72176 4.03097,-0.44596 8.87999,9.66395 2.74536,5.72383 4.70175,11.15831 4.34761,12.07645 -0.3542,0.91819 -3.18364,2.40794 -6.28772,3.31039 -9.30352,2.70482 -32.13344,14.34096 -33.64278,17.14741 -0.77365,1.43789 -1.49805,8.51393 -1.60991,15.72442 -0.18646,12.00766 -0.5627,13.83507 -4.47328,21.73738 -2.34839,4.74518 -5.70237,9.749 -7.45327,11.11947 l -3.18364,2.49172 v 82.03551 82.0353 h -29.79342 -29.7938 l -0.34313,-38.66852 -0.34297,-38.66851 -17.4986,27.06857 c -11.36148,17.57484 -18.17457,26.94801 -19.4254,26.72451 -1.05958,-0.18958 -9.80888,-12.38878 -19.44294,-27.10919 l -17.51682,-26.7646 -0.34309,38.70912 -0.34294,38.70862 h -29.14571 -29.14546 z m 202.21393,83.53489 c 0.003,-0.89973 13.00306,-34.42806 28.88835,-74.5068 L 490.0371,358.4578 h 34.85927 34.85915 l 28.91271,72.87051 c 15.902,40.07874 28.92095,73.59596 28.93092,74.48252 0.0147,1.24337 -6.76286,1.61228 -29.61469,1.61228 h -29.63307 l -3.96117,-9.38926 c -2.17846,-5.16415 -6.94459,-17.49741 -10.59123,-27.40706 -9.53338,-25.90757 -18.54506,-48.32657 -19.42513,-48.32657 -0.41731,0 -5.94808,13.49387 -12.29065,29.98653 -6.34236,16.49233 -13.70939,35.50017 -16.37109,42.23898 l -4.83915,12.25262 -29.30634,0.34674 c -22.99779,0.27194 -29.30529,-0.004 -29.30039,-1.28998 z m 194.42448,-84.00587 c 0,-84.01553 -0.0474,-85.65512 -2.62688,-88.91679 -4.43282,-5.60742 -6.5037,-12.17316 -7.3209,-23.2099 -0.43054,-5.81517 -1.57864,-12.14413 -2.55134,-14.0648 -2.29129,-4.5239 -16.37104,-12.81137 -32.46862,-19.1116 -6.96043,-2.72414 -12.846,-5.52216 -13.0791,-6.21783 -0.62342,-1.86114 9.88285,-22.12329 11.47136,-22.12329 5.41641,0 34.81939,14.63653 47.04772,23.42008 4.89087,3.51281 5.38025,3.59114 20.73929,3.31854 14.86253,-0.26378 16.09772,-0.0859 22.3901,3.20619 13.63288,7.13466 20.74491,20.07159 19.62163,35.69251 -0.62983,8.75802 -3.15692,15.33072 -7.86401,20.45287 l -2.66673,2.90196 h 24.26033 c 28.39773,0 39.65105,1.8037 53.56102,8.58468 11.17076,5.44554 21.10432,15.28902 25.86036,25.62587 6.95239,15.11005 6.97514,36.36545 0.0531,51.40573 -3.87592,8.42429 -13.4328,19.03686 -21.24567,23.59268 l -5.54398,3.23253 15.15697,22.13113 c 8.33612,12.17208 16.78962,24.39478 18.78517,27.16113 6.35126,8.80387 7.37125,8.51224 -29.77369,8.51224 H 727.09508 L 711.2897,483.56321 C 695.72786,460.07091 695.41357,459.703 690.89964,459.703 H 686.315 v 23.8603 23.86013 h -29.81257 -29.81264 z m 58.97234,-34.02275 c 0,0 0.1566,12.73634 0.1566,13.84131 l 0.36684,14.58837 15.24864,-0.0791 c 13.39492,-0.41068 17.2057,-0.66874 19.88039,-2.71192 2.4158,-2.0065 5.32842,-3.62758 6.39814,-7.64662 1.53722,-5.77667 1.51878,-6.50676 -0.10524,-9.83058 -4.03518,-7.7117 -12.59617,-8.78422 -26.08275,-8.49708 l -15.85978,0.3377 m -25.52155,-65.35934 c 5.84561,-3.213 6.06459,-3.13156 7.33568,-9.80078 l 0.93016,-6.95843 -5.39643,-4.81379 c -3.06241,-2.29964 -6.1491,-4.9098 -7.20551,-4.89829 -1.08452,0.005 -4.26915,1.24917 -8.03248,2.70794 -4.65376,2.05493 -6.951,3.33893 -7.51918,7.44977 -1.35013,9.76919 -1.65897,10.44296 4.48592,15.10066 6.66579,5.05238 15.40184,1.21292 15.40184,1.21292 m 187.8879,124.03543 -0.3368,-60.94052 -24.95199,-0.35019 -24.95187,-0.35037 v -25.12211 -25.12218 h 80.36468 80.36453 v 25.15 25.14996 h -25.2764 -25.276 v 61.26277 61.26281 H 878.16738 848.36724 Z M 509.04428,236.43408 c -6.96943,-3.43258 -14.94568,-12.36201 -16.93038,-18.95327 -0.83859,-2.78442 -1.51177,-8.47748 -1.49601,-12.65132 0.1064,-29.0006 36.12917,-43.31482 56.92581,-22.62206 16.69606,16.61278 12.72977,43.35482 -7.95094,53.60913 -8.89681,4.41114 -22.29587,4.68206 -30.54848,0.61752 z m -49.31779,-61.79699 c -4.33157,-2.62762 -8.02311,-9.17997 -8.02311,-14.24016 0,-12.21606 24.78077,-30.47246 49.9038,-36.76485 12.57979,-3.15071 33.10549,-2.88915 46.38682,0.59131 17.50378,4.58698 39.72716,17.98554 45.49674,27.43034 1.15008,1.88286 2.09123,6.07055 2.09123,9.30579 0,4.72932 -0.7816,6.76815 -3.98777,10.40139 -7.29019,8.26188 -16.42155,7.77038 -27.27564,-1.46843 -24.42852,-20.79275 -54.947,-20.51313 -81.26814,0.74482 -6.94511,5.60922 -9.00989,6.61165 -13.61023,6.6075 -3.15016,-0.002 -7.22129,-1.09576 -9.7137,-2.60771 z m -36.38225,-39.57483 c -8.15064,-3.99523 -11.61473,-14.49881 -7.42007,-22.4985 3.59884,-6.86314 22.64408,-21.816516 37.86106,-29.726739 49.75334,-25.86287 111.94825,-21.80331 157.26453,10.264905 19.67631,13.923934 25.38398,22.078824 22.19096,31.705554 -2.41802,7.29001 -8.01189,11.17036 -16.10287,11.17036 -6.24105,0 -7.35632,-0.50186 -14.48294,-6.51844 -46.72123,-39.443475 -108.35595,-40.702983 -152.87579,-3.12393 -13.2931,11.22068 -18.10602,12.80952 -26.43488,8.72679 z M 384.13571,93.824324 c -4.94777,-3.055498 -7.61217,-8.356808 -7.61217,-15.14539 0,-5.21295 0.68608,-6.696804 5.49935,-11.892597 14.76232,-15.935322 49.67001,-37.218681 74.54228,-45.448711 24.36447,-8.061982 35.27371,-11.042225 67.45011,-11.119791 32.60361,-0.07877 40.67443,2.383112 65.41741,10.491653 23.55716,7.7199 44.34678,19.332929 66.89199,37.365615 15.48673,12.387058 18.20582,17.928383 13.86693,28.260885 -2.69673,6.421979 -8.94952,9.931598 -16.53811,9.282465 -5.31347,-0.454532 -7.46338,-1.671639 -16.85059,-9.538848 C 614.50366,67.39112 592.56243,55.755629 567.96434,49.574239 510.90964,35.236734 456.66787,47.87349 411.32965,86.065606 c -4.52865,3.814994 -9.50819,7.609919 -11.06533,8.433203 -4.02925,2.130408 -12.13535,1.791384 -16.12865,-0.674523 z"
     id="path15"
     inkscape:connector-curvature="0"
     sodipodi:nodetypes="cscccscccscccscsscccssccssssssccccsccccccscsscsscscsccssscsssccccccccccsccsscccccccccccccccsssscsssscsscccccccccccsssccccccssscccsscsccsscsssssccccscsscsssscscscsssssccccsccccccsccscsccccsccscsccccccccscscccccccscccscsccsssccscscscccsssssccscscscssscsscccccsccccccscscccccccsscscccccccccccccccsccssscssscssscccscsssssssccsssssscsssccc" />
</svg>
